<svg xmlns="http://www.w3.org/2000/svg" width="1200" height="700" viewBox="0 0 1200 700">
  <rect width="1200" height="700" fill="#0f172a"/>
  <rect x="40" y="40" width="1120" height="620" rx="24" fill="#111827" stroke="#38bdf8" stroke-width="3"/>
  <rect x="80" y="90" width="1040" height="70" rx="16" fill="#1e293b"/>
  <rect x="120" y="110" width="180" height="26" rx="13" fill="#38bdf8"/>
  <rect x="860" y="110" width="120" height="22" rx="11" fill="#e2e8f0"/>
  <rect x="1000" y="110" width="70" height="22" rx="11" fill="#e2e8f0"/>
  <rect x="120" y="220" width="420" height="180" rx="20" fill="#0f172a" stroke="#38bdf8" stroke-width="2"/>
  <rect x="170" y="270" width="260" height="24" rx="12" fill="#e2e8f0"/>
  <rect x="170" y="308" width="180" height="18" rx="9" fill="#94a3b8"/>
  <rect x="620" y="220" width="420" height="180" rx="20" fill="#1e293b"/>
  <rect x="660" y="260" width="160" height="24" rx="12" fill="#38bdf8"/>
  <rect x="660" y="300" width="220" height="18" rx="9" fill="#e2e8f0"/>
  <rect x="120" y="460" width="320" height="120" rx="18" fill="#1e293b"/>
  <rect x="470" y="460" width="320" height="120" rx="18" fill="#1e293b"/>
  <rect x="820" y="460" width="220" height="120" rx="18" fill="#1e293b"/>
</svg>